<?xml version="1.0" encoding="UTF-8"?>
<!DOCTYPE svg PUBLIC "-//W3C//DTD SVG 1.1//EN" "http://www.w3.org/Graphics/SVG/1.1/DTD/svg11.dtd">
<svg xmlns="http://www.w3.org/2000/svg" version="1.1" width="500px" height="96px" style="shape-rendering:geometricPrecision; text-rendering:geometricPrecision; image-rendering:optimizeQuality; fill-rule:evenodd; clip-rule:evenodd" xmlns:xlink="http://www.w3.org/1999/xlink">
<g><path style="opacity:0.974" fill="#2496be" d="M 262.5,3.5 C 277.481,1.7795 290.314,6.11283 301,16.5C 307.643,30.4927 308.309,44.826 303,59.5C 299.033,65.4771 295.033,71.4771 291,77.5C 278.41,87.9425 263.91,92.1092 247.5,90C 240.384,89.3529 234.051,86.8529 228.5,82.5C 217.349,70.5037 214.349,56.5037 219.5,40.5C 223.008,30.508 228.341,21.6747 235.5,14C 243.707,8.22077 252.707,4.72077 262.5,3.5 Z M 261.5,21.5 C 275.474,19.9849 282.808,26.1516 283.5,40C 283.517,52.6323 278.517,62.6323 268.5,70C 260.102,74.7964 252.269,73.9631 245,67.5C 239.612,54.1665 240.945,41.4998 249,29.5C 252.586,25.7136 256.753,23.0469 261.5,21.5 Z"/></g>
<g><path style="opacity:0.979" fill="#2496be" d="M 137.5,5.5 C 146.167,5.5 154.833,5.5 163.5,5.5C 168.984,23.8119 174.484,42.1452 180,60.5C 184.309,42.6511 187.976,24.6511 191,6.5C 198.109,5.18794 205.276,5.18794 212.5,6.5C 207.29,33.8823 201.957,61.2157 196.5,88.5C 187.915,88.8166 179.415,88.4832 171,87.5C 165.436,70.0727 159.603,52.7394 153.5,35.5C 149.796,53.0987 146.462,70.7654 143.5,88.5C 136.167,88.5 128.833,88.5 121.5,88.5C 127.084,60.9112 132.418,33.2446 137.5,5.5 Z"/></g>
<g><path style="opacity:0.976" fill="#2496be" d="M 327.5,5.5 C 341.504,5.33343 355.504,5.50009 369.5,6C 378.351,6.67615 385.851,10.1761 392,16.5C 393.575,20.4055 395.575,24.0722 398,27.5C 401.507,48.9848 395.007,66.8181 378.5,81C 370.741,85.3524 362.408,87.6858 353.5,88C 339.504,88.4999 325.504,88.6666 311.5,88.5C 317.6,60.9981 322.934,33.3314 327.5,5.5 Z M 346.5,23.5 C 373.347,21.8297 381.514,33.4964 371,58.5C 366.561,64.9763 360.395,68.8096 352.5,70C 347.845,70.4992 343.179,70.6658 338.5,70.5C 341.167,54.832 343.834,39.1653 346.5,23.5 Z"/></g>
<g><path style="opacity:0.973" fill="#2596be" d="M 441.5,5.5 C 450.167,5.5 458.833,5.5 467.5,5.5C 472.7,32.7757 477.7,60.109 482.5,87.5C 475.197,88.4973 467.863,88.8306 460.5,88.5C 460.435,83.5463 459.768,78.713 458.5,74C 447.833,73.3333 437.167,73.3333 426.5,74C 424.565,78.7043 422.231,83.2043 419.5,87.5C 411.528,88.4977 403.528,88.831 395.5,88.5C 411.052,61.0724 426.385,33.4057 441.5,5.5 Z M 449.5,30.5 C 450.693,30.9704 451.36,31.9704 451.5,33.5C 452.72,41.4821 453.72,49.4821 454.5,57.5C 448.463,57.8293 442.463,57.4959 436.5,56.5C 441.374,48.0856 445.707,39.4189 449.5,30.5 Z"/></g>
<g><path style="opacity:0.861" fill="#2596bd" d="M 48.5,40.5 C 73.8333,40.5 99.1667,40.5 124.5,40.5C 124.714,42.1439 124.38,43.6439 123.5,45C 98.1689,45.5 72.8355,45.6666 47.5,45.5C 47.366,43.7085 47.6993,42.0418 48.5,40.5 Z"/></g>
<g><path style="opacity:0.861" fill="#2596bd" d="M 18.5,49.5 C 51.8333,49.5 85.1667,49.5 118.5,49.5C 118.579,50.9305 118.246,52.2638 117.5,53.5C 84.1733,54.4999 50.84,54.8332 17.5,54.5C 17.6287,52.7839 17.962,51.1172 18.5,49.5 Z"/></g>
</svg>
